HIERARCHY
ROOT hips
{
	OFFSET -0.003675 0.299928 -0.021708
	CHANNELS 6 Xposition Yposition Zposition Xrotation Yrotation Zrotation
	JOINT LowerBack
	{
		OFFSET 0.000919 0.177588 0.009275
		CHANNELS 3 Xrotation Yrotation Zrotation
		JOINT spine
		{
			OFFSET 0.000919 0.177588 0.009275
			CHANNELS 3 Xrotation Yrotation Zrotation
			JOINT chest
			{
				OFFSET 0.000456 0.100015 0.004638
				CHANNELS 3 Xrotation Yrotation Zrotation
				JOINT neck
				{
					OFFSET 0.000456 0.100015 0.004638
					CHANNELS 3 Xrotation Yrotation Zrotation
					JOINT head
					{
						OFFSET 0.000924 0.155147 0.009274
						CHANNELS 6 Xposition Yposition Zposition Xrotation Yrotation Zrotation
						End Site
						{
							OFFSET 0.000000 0.153400 0.000000
						}
					}
				}
				JOINT shoulder.L
				{
					OFFSET 0.019937 0.078966 0.057518
					CHANNELS 6 Xposition Yposition Zposition Yrotation Xrotation Zrotation
					JOINT upper_arm.L
					{
						OFFSET 0.177024 -0.020465 -0.095062
						CHANNELS 6 Xposition Yposition Zposition Xrotation Yrotation Zrotation
						JOINT forearm.L
						{
							OFFSET 0.247100 -0.135500 -0.061800
							CHANNELS 3 Xrotation Yrotation Zrotation
							JOINT hand.L
							{
								OFFSET 0.217000 -0.143000 0.039300
								CHANNELS 3 Xrotation Yrotation Zrotation
								JOINT palm.01.L
								{
									OFFSET 0.021770 -0.038291 0.012954
									CHANNELS 6 Xposition Yposition Zposition Yrotation Xrotation Zrotation
									JOINT f_index.01.L
									{
										OFFSET 0.053215 -0.044137 0.008236
										CHANNELS 3 Xrotation Yrotation Zrotation
										JOINT f_index.02.L
										{
											OFFSET 0.036108 -0.024723 -0.010656
											CHANNELS 3 Xrotation Yrotation Zrotation
											JOINT f_index.03.L
											{
												OFFSET 0.021342 -0.014948 -0.010846
												CHANNELS 3 Xrotation Yrotation Zrotation
												End Site
												{
													OFFSET 0.015600 -0.009860 -0.013421
												}
											}
										}
									}
									JOINT thumb.01.L
									{
										OFFSET -0.009090 -0.002348 -0.024223
										CHANNELS 6 Xposition Yposition Zposition Xrotation Yrotation Zrotation
										JOINT thumb.02.L
										{
											OFFSET 0.019713 -0.035076 -0.011120
											CHANNELS 3 Xrotation Yrotation Zrotation
											JOINT thumb.03.L
											{
												OFFSET 0.024877 -0.021748 -0.005176
												CHANNELS 3 Xrotation Yrotation Zrotation
												End Site
												{
													OFFSET 0.016125 -0.013029 -0.001569
												}
											}
										}
									}
								}
								JOINT palm.02.L
								{
									OFFSET 0.032823 -0.025104 0.012281
									CHANNELS 6 Xposition Yposition Zposition Yrotation Xrotation Zrotation
									JOINT f_middle.01.L
									{
										OFFSET 0.055723 -0.038469 0.008037
										CHANNELS 3 Xrotation Yrotation Zrotation
										JOINT f_middle.02.L
										{
											OFFSET 0.038167 -0.027473 -0.015582
											CHANNELS 3 Xrotation Yrotation Zrotation
											JOINT f_middle.03.L
											{
												OFFSET 0.021707 -0.016587 -0.017037
												CHANNELS 3 Xrotation Yrotation Zrotation
												End Site
												{
													OFFSET 0.014112 -0.010584 -0.014294
												}
											}
										}
									}
								}
								JOINT palm.03.L
								{
									OFFSET 0.039230 -0.011402 0.008390
									CHANNELS 6 Xposition Yposition Zposition Yrotation Xrotation Zrotation
									JOINT f_ring.01.L
									{
										OFFSET 0.061796 -0.031470 0.007910
										CHANNELS 3 Xrotation Yrotation Zrotation
										JOINT f_ring.02.L
										{
											OFFSET 0.033092 -0.023401 -0.019127
											CHANNELS 3 Xrotation Yrotation Zrotation
											JOINT f_ring.03.L
											{
												OFFSET 0.021392 -0.015362 -0.017824
												CHANNELS 3 Xrotation Yrotation Zrotation
												End Site
												{
													OFFSET 0.008670 -0.007297 -0.014686
												}
											}
										}
									}
								}
								JOINT palm.04.L
								{
									OFFSET 0.043417 0.002450 0.002889
									CHANNELS 6 Xposition Yposition Zposition Yrotation Xrotation Zrotation
									JOINT f_pinky.01.L
									{
										OFFSET 0.069986 -0.026156 0.003627
										CHANNELS 3 Xrotation Yrotation Zrotation
										JOINT f_pinky.02.L
										{
											OFFSET 0.018520 -0.012813 -0.016429
											CHANNELS 3 Xrotation Yrotation Zrotation
											JOINT f_pinky.03.L
											{
												OFFSET 0.013822 -0.009796 -0.014947
												CHANNELS 3 Xrotation Yrotation Zrotation
												End Site
												{
													OFFSET 0.007238 -0.006103 -0.011657
												}
											}
										}
									}
								}
							}
						}
					}
				}
				JOINT shoulder.R
				{
					OFFSET -0.016662 0.078957 0.057696
					CHANNELS 6 Xposition Yposition Zposition Yrotation Xrotation Zrotation
					JOINT upper_arm.R
					{
						OFFSET -0.176972 -0.020537 -0.095144
						CHANNELS 6 Xposition Yposition Zposition Xrotation Yrotation Zrotation
						JOINT forearm.R
						{
							OFFSET -0.247100 -0.135500 -0.061800
							CHANNELS 3 Xrotation Yrotation Zrotation
							JOINT hand.R
							{
								OFFSET -0.217000 -0.143000 0.039300
								CHANNELS 3 Xrotation Yrotation Zrotation
								JOINT palm.01.R
								{
									OFFSET -0.021773 -0.038278 0.012988
									CHANNELS 6 Xposition Yposition Zposition Yrotation Xrotation Zrotation
									JOINT f_index.01.R
									{
										OFFSET -0.053212 -0.044139 0.008249
										CHANNELS 3 Xrotation Yrotation Zrotation
										JOINT f_index.02.R
										{
											OFFSET -0.036049 -0.024835 -0.010634
											CHANNELS 3 Xrotation Yrotation Zrotation
											JOINT f_index.03.R
											{
												OFFSET -0.021371 -0.014881 -0.010866
												CHANNELS 3 Xrotation Yrotation Zrotation
												End Site
												{
													OFFSET -0.015584 -0.009883 -0.013422
												}
											}
										}
									}
									JOINT thumb.01.R
									{
										OFFSET 0.009113 -0.002381 -0.024211
										CHANNELS 6 Xposition Yposition Zposition Xrotation Yrotation Zrotation
										JOINT thumb.02.R
										{
											OFFSET -0.019694 -0.035097 -0.011088
											CHANNELS 3 Xrotation Yrotation Zrotation
											JOINT thumb.03.R
											{
												OFFSET -0.024867 -0.021762 -0.005168
												CHANNELS 3 Xrotation Yrotation Zrotation
												End Site
												{
													OFFSET -0.016120 -0.013036 -0.001565
												}
											}
										}
									}
								}
								JOINT palm.02.R
								{
									OFFSET -0.032828 -0.025095 0.012286
									CHANNELS 6 Xposition Yposition Zposition Yrotation Xrotation Zrotation
									JOINT f_middle.01.R
									{
										OFFSET -0.055721 -0.038472 0.008040
										CHANNELS 3 Xrotation Yrotation Zrotation
										JOINT f_middle.02.R
										{
											OFFSET -0.038101 -0.027593 -0.015557
											CHANNELS 3 Xrotation Yrotation Zrotation
											JOINT f_middle.03.R
											{
												OFFSET -0.021730 -0.016530 -0.017054
												CHANNELS 3 Xrotation Yrotation Zrotation
												End Site
												{
													OFFSET -0.014096 -0.010608 -0.014293
												}
											}
										}
									}
								}
								JOINT palm.03.R
								{
									OFFSET -0.039192 -0.011488 0.008390
									CHANNELS 6 Xposition Yposition Zposition Yrotation Xrotation Zrotation
									JOINT f_ring.01.R
									{
										OFFSET -0.061839 -0.031387 0.007876
										CHANNELS 3 Xrotation Yrotation Zrotation
										JOINT f_ring.02.R
										{
											OFFSET -0.033068 -0.023437 -0.019125
											CHANNELS 3 Xrotation Yrotation Zrotation
											JOINT f_ring.03.R
											{
												OFFSET -0.021371 -0.015393 -0.017822
												CHANNELS 3 Xrotation Yrotation Zrotation
												End Site
												{
													OFFSET -0.008654 -0.007321 -0.014684
												}
											}
										}
									}
								}
								JOINT palm.04.R
								{
									OFFSET -0.043421 0.002443 0.002845
									CHANNELS 6 Xposition Yposition Zposition Yrotation Xrotation Zrotation
									JOINT f_pinky.01.R
									{
										OFFSET -0.069983 -0.026169 0.003599
										CHANNELS 3 Xrotation Yrotation Zrotation
										JOINT f_pinky.02.R
										{
											OFFSET -0.018501 -0.012842 -0.016428
											CHANNELS 3 Xrotation Yrotation Zrotation
											JOINT f_pinky.03.R
											{
												OFFSET -0.013806 -0.009821 -0.014946
												CHANNELS 3 Xrotation Yrotation Zrotation
												End Site
												{
													OFFSET -0.007226 -0.006121 -0.011655
												}
											}
										}
									}
								}
							}
						}
					}
				}
			}
		}
	}
	JOINT pelvis.L
	{
		OFFSET 0.000000 0.000000 0.000000
		CHANNELS 6 Xposition Yposition Zposition Xrotation Yrotation Zrotation
		JOINT thigh.L
		{
			OFFSET 0.101675 0.001054 -0.000000
			CHANNELS 3 Xrotation Yrotation Zrotation
			JOINT shin.L
			{
				OFFSET 0.000000 -0.534800 0.041000
				CHANNELS 3 Xrotation Yrotation Zrotation
				JOINT foot.L
				{
					OFFSET 0.000000 -0.452000 -0.044800
					CHANNELS 3 Xrotation Yrotation Zrotation
					JOINT toe.L
					{
						OFFSET -0.000000 -0.068500 0.109600
						CHANNELS 3 Xrotation Yrotation Zrotation
						End Site
						{
							OFFSET -0.000000 0.000000 0.067200
						}
					}
				}
				JOINT heel.L
				{
					OFFSET 0.000000 -0.452000 -0.044800
					CHANNELS 3 Xrotation Yrotation Zrotation
					JOINT heel.02.L
					{
						OFFSET -0.038000 -0.085200 0.016200
						CHANNELS 6 Xposition Yposition Zposition Xrotation Yrotation Zrotation
						End Site
						{
							OFFSET 0.080000 -0.000000 0.000000
						}
					}
				}
			}
		}
	}
	JOINT pelvis.R
	{
		OFFSET 0.000000 0.000000 0.000000
		CHANNELS 6 Xposition Yposition Zposition Xrotation Yrotation Zrotation
		JOINT thigh.R
		{
			OFFSET -0.094325 0.001054 0.000000
			CHANNELS 3 Xrotation Yrotation Zrotation
			JOINT shin.R
			{
				OFFSET 0.000000 -0.534800 0.041000
				CHANNELS 3 Xrotation Yrotation Zrotation
				JOINT foot.R
				{
					OFFSET 0.000000 -0.452000 -0.044800
					CHANNELS 3 Xrotation Yrotation Zrotation
					JOINT toe.R
					{
						OFFSET -0.000000 -0.068500 0.109600
						CHANNELS 3 Xrotation Yrotation Zrotation
						End Site
						{
							OFFSET -0.000000 0.000000 0.067200
						}
					}
				}
				JOINT heel.R
				{
					OFFSET 0.000000 -0.452000 -0.044800
					CHANNELS 3 Xrotation Yrotation Zrotation
					JOINT heel.02.R
					{
						OFFSET 0.038000 -0.085200 0.016200
						CHANNELS 6 Xposition Yposition Zposition Xrotation Yrotation Zrotation
						End Site
						{
							OFFSET -0.080000 0.000000 -0.000000
						}
					}
				}
			}
		}
	}
}
MOTION
Frames: 4
Frame Time: 0.041667
-0.008355 0.286409 -0.028198 17.490228 23.828583 -15.696055 0.000000 -0.000001 0.000001 0.000002 0.000002 0.000002 -0.000002 -0.000002 0.000000 -0.000000 -0.000002 0.000002 0.000924 0.155148 0.009274 13.368718 -0.016602 4.627508 0.019937 0.078966 0.057518 7.630546 4.768722 28.239566 0.177025 -0.020465 -0.095062 -2.137049 11.449948 -58.373378 -42.939832 11.615637 -447.914298 -0.000003 0.000001 0.000005 0.021770 -0.038291 0.012954 0.000001 -0.000003 -0.000006 -0.000000 -0.000002 0.000001 -0.000001 0.000001 0.000008 -0.000003 -0.000000 0.000002 -0.009090 -0.002348 -0.024224 0.000000 0.000000 0.000004 0.000001 0.000001 -0.000000 0.000003 -0.000002 -0.000002 0.032823 -0.025104 0.012281 -0.000000 -0.000000 -0.000001 0.000001 -0.000002 -0.000005 -0.000006 -0.000003 0.000001 -0.000001 0.000000 0.000004 0.039230 -0.011402 0.008390 0.000001 -0.000001 -0.000001 0.000003 0.000000 0.000001 -0.000002 0.000003 -0.000001 -0.000000 -0.000003 0.000003 0.043417 0.002450 0.002889 0.000001 0.000000 -0.000007 0.000001 -0.000003 -0.000003 -0.000001 -0.000002 -0.000003 0.000002 -0.000003 -0.000001 -0.016662 0.078957 0.057696 -1.204385 5.281223 -32.710715 -0.176972 -0.020537 -0.095144 2.267646 -11.373530 61.129490 -39.941068 -1.984296 435.724733 0.000001 -0.000003 0.000006 -0.021773 -0.038278 0.012988 -0.000000 -0.000002 0.000005 -0.000000 0.000001 0.000002 -0.000000 -0.000000 -0.000005 -0.000003 0.000002 0.000005 0.009114 -0.002381 -0.024212 0.000002 0.000001 0.000005 0.000000 -0.000003 0.000002 0.000002 -0.000002 0.000001 -0.032828 -0.025095 0.012286 0.000002 -0.000000 0.000001 0.000001 0.000003 0.000001 0.000002 -0.000000 0.000003 -0.000002 0.000003 -0.000006 -0.039192 -0.011488 0.008390 -0.000002 -0.000001 0.000007 -0.000000 0.000006 0.000000 0.000002 -0.000003 -0.000002 -0.000003 0.000004 0.000004 -0.043421 0.002443 0.002845 0.000001 -0.000001 0.000002 -0.000004 0.000004 -0.000002 -0.000000 -0.000005 0.000000 0.000001 0.000003 0.000003 0.000000 0.000000 0.000000 -1.456644 -0.505517 5.453884 -39.448116 0.442540 8.156270 45.142950 -0.489796 4.950067 0.000003 0.000001 -0.000000 -0.000003 0.000004 -0.000001 -0.000002 -0.000000 -0.000000 -0.038000 -0.085200 0.016200 0.000001 -0.000001 -0.000001 0.000000 0.000000 0.000000 -1.439935 -0.503741 6.688225 -23.426046 0.435174 3.722312 25.504090 -0.316636 3.196951 -0.000007 -0.000003 0.000001 0.000001 0.000002 0.000000 0.000005 -0.000002 0.000001 0.038000 -0.085200 0.016200 0.000001 -0.000002 -0.000002 
-0.008231 0.291888 -0.028642 15.380097 22.964136 -14.205948 -0.000000 -0.000000 0.000001 0.000001 -0.000001 0.000002 0.000002 -0.000001 0.000000 0.000002 0.000000 -0.000002 0.000924 0.155147 0.009274 14.136512 -0.016046 3.773011 0.019937 0.078966 0.057518 8.203664 5.140549 27.484174 0.177024 -0.020465 -0.095062 -1.563497 11.268916 -57.936847 -46.478543 15.227536 -448.631167 -0.000002 0.000001 0.000003 0.021770 -0.038291 0.012954 0.000001 0.000003 -0.000001 -0.000002 -0.000001 0.000001 -0.000000 -0.000003 0.000005 -0.000003 0.000001 0.000000 -0.009090 -0.002348 -0.024223 -0.000000 -0.000000 -0.000001 0.000001 0.000001 -0.000000 0.000000 0.000000 -0.000006 0.032823 -0.025104 0.012281 -0.000000 0.000001 0.000002 -0.000000 0.000002 -0.000002 -0.000000 -0.000003 0.000001 -0.000000 0.000002 0.000006 0.039230 -0.011402 0.008390 0.000001 0.000001 0.000001 -0.000000 0.000003 0.000001 0.000001 0.000001 0.000001 0.000002 0.000000 0.000003 0.043417 0.002449 0.002889 -0.000001 0.000001 -0.000002 0.000001 -0.000006 -0.000004 -0.000002 0.000002 -0.000001 0.000002 -0.000003 -0.000001 -0.016662 0.078957 0.057696 -1.514736 5.677552 -32.135401 -0.176972 -0.020537 -0.095144 6.501516 -11.839840 58.174558 -41.843726 -0.667486 432.753464 -0.000000 -0.000000 0.000000 -0.021773 -0.038278 0.012988 0.000001 -0.000002 0.000000 -0.000003 0.000004 -0.000006 -0.000002 0.000003 -0.000002 -0.000003 0.000004 0.000003 0.009114 -0.002381 -0.024212 -0.000002 -0.000002 -0.000006 -0.000000 -0.000003 0.000002 -0.000000 0.000000 0.000001 -0.032828 -0.025095 0.012286 0.000003 -0.000001 -0.000003 0.000000 0.000001 0.000002 0.000000 0.000002 -0.000004 -0.000003 0.000000 -0.000003 -0.039192 -0.011488 0.008390 0.000002 0.000000 0.000001 0.000002 0.000004 -0.000007 0.000002 -0.000003 0.000003 -0.000003 0.000000 -0.000004 -0.043421 0.002443 0.002844 -0.000003 0.000000 -0.000001 -0.000002 0.000002 -0.000001 -0.000001 -0.000004 -0.000002 0.000000 0.000003 0.000001 -0.000000 -0.000000 -0.000000 -1.363102 -0.445593 4.804273 -37.197408 0.338315 6.643859 43.908803 -0.272471 2.752245 -0.000002 -0.000002 -0.000001 -0.000001 0.000001 0.000000 0.000002 0.000000 0.000001 -0.038000 -0.085200 0.016200 -0.000000 0.000001 -0.000001 0.000000 -0.000000 -0.000000 -1.346333 -0.444014 6.038587 -21.636140 0.426009 3.746548 27.137989 -0.445131 4.496465 0.000000 -0.000002 -0.000000 -0.000003 -0.000001 0.000000 0.000007 0.000000 0.000001 0.038000 -0.085200 0.016200 0.000003 0.000001 -0.000001 
-0.006685 0.293846 -0.027549 12.952385 17.509830 -11.918579 0.000002 -0.000000 0.000000 0.000000 0.000001 0.000000 -0.000000 0.000002 0.000000 0.000001 0.000001 -0.000000 0.000924 0.155148 0.009274 18.507272 -0.017576 3.144924 0.019937 0.078966 0.057518 8.600908 5.921480 28.904719 0.177024 -0.020466 -0.095062 0.698987 11.383540 -55.779785 -41.723891 9.815171 -448.002735 -0.000003 0.000000 0.000001 0.021770 -0.038291 0.012954 0.000002 0.000003 0.000001 -0.000003 0.000001 0.000003 0.000003 -0.000000 0.000005 0.000001 -0.000000 -0.000003 -0.009090 -0.002348 -0.024224 0.000001 0.000000 -0.000001 0.000002 0.000000 0.000001 0.000001 0.000000 0.000003 0.032823 -0.025104 0.012281 0.000001 0.000000 0.000009 -0.000000 0.000001 -0.000003 -0.000001 0.000003 -0.000001 -0.000003 -0.000004 0.000004 0.039230 -0.011402 0.008390 0.000002 -0.000000 0.000001 0.000002 0.000001 0.000001 0.000002 0.000005 0.000005 -0.000003 -0.000001 0.000005 0.043417 0.002450 0.002889 0.000002 -0.000000 0.000000 -0.000005 -0.000004 -0.000002 -0.000000 0.000006 0.000003 -0.000002 0.000000 0.000001 -0.016662 0.078957 0.057696 -2.673850 6.124075 -32.169081 -0.176972 -0.020537 -0.095144 5.573090 -11.769352 56.681305 -39.148848 -1.289883 436.621455 -0.000000 0.000005 -0.000001 -0.021773 -0.038278 0.012988 -0.000003 0.000002 -0.000007 0.000001 -0.000000 0.000000 -0.000000 -0.000001 -0.000006 -0.000002 -0.000002 0.000003 0.009113 -0.002381 -0.024212 0.000001 -0.000003 -0.000003 0.000001 -0.000003 0.000002 0.000001 0.000002 -0.000003 -0.032828 -0.025095 0.012286 -0.000003 0.000002 -0.000008 0.000000 0.000003 0.000001 -0.000001 0.000000 -0.000002 -0.000004 0.000005 -0.000006 -0.039192 -0.011488 0.008390 -0.000004 0.000003 -0.000000 0.000000 0.000003 -0.000003 0.000001 0.000001 -0.000000 -0.000003 0.000003 -0.000001 -0.043421 0.002443 0.002844 -0.000006 0.000004 -0.000003 -0.000003 0.000003 -0.000001 -0.000006 -0.000006 0.000000 -0.000001 0.000001 -0.000000 -0.000000 0.000000 0.000000 -1.311208 -0.368730 3.854996 -32.099335 0.210906 4.720491 43.583041 -0.147116 1.486579 -0.000002 -0.000000 -0.000000 -0.000001 0.000003 -0.000001 -0.000005 0.000002 0.000000 -0.038000 -0.085200 0.016200 0.000004 -0.000000 0.000001 -0.000000 0.000000 0.000000 -1.293262 -0.367340 5.089281 -17.587737 0.479463 4.725130 25.912496 -0.394453 3.983694 0.000002 -0.000000 0.000001 0.000002 0.000001 -0.000001 0.000003 -0.000001 -0.000000 0.038000 -0.085200 0.016200 -0.000003 -0.000001 -0.000001 
-0.006259 0.296288 -0.025656 11.664713 16.909832 -12.670271 0.000000 0.000001 -0.000001 -0.000000 -0.000001 -0.000001 -0.000000 -0.000001 -0.000001 -0.000000 0.000001 -0.000001 0.000924 0.155148 0.009274 15.848155 -0.016047 4.383240 0.019937 0.078966 0.057518 11.164411 6.599049 28.463970 0.177024 -0.020465 -0.095062 1.057280 11.232758 -55.560030 -42.447140 11.844136 -449.674356 0.000001 -0.000000 0.000003 0.021770 -0.038291 0.012954 0.000000 -0.000001 -0.000001 -0.000003 -0.000001 0.000007 0.000003 -0.000002 0.000004 0.000002 0.000005 0.000002 -0.009090 -0.002348 -0.024223 -0.000001 -0.000001 0.000003 0.000001 -0.000000 0.000001 -0.000002 -0.000001 -0.000004 0.032823 -0.025104 0.012281 -0.000001 0.000001 -0.000001 -0.000000 0.000003 -0.000007 -0.000004 -0.000003 0.000001 -0.000000 -0.000001 -0.000003 0.039230 -0.011402 0.008390 0.000000 -0.000001 0.000001 0.000001 0.000001 -0.000000 -0.000002 0.000002 0.000005 -0.000000 -0.000002 0.000003 0.043417 0.002450 0.002889 -0.000001 -0.000000 -0.000003 -0.000001 -0.000002 0.000001 0.000002 -0.000001 -0.000006 0.000003 0.000003 0.000000 -0.016662 0.078957 0.057696 -0.542551 6.753372 -33.898611 -0.176972 -0.020537 -0.095144 5.164165 -11.911433 55.719317 -35.782487 0.759474 435.340630 0.000001 -0.000002 0.000002 -0.021773 -0.038278 0.012988 -0.000002 0.000000 -0.000003 -0.000003 0.000005 -0.000001 0.000000 -0.000002 -0.000003 -0.000000 -0.000001 0.000004 0.009113 -0.002381 -0.024212 -0.000001 -0.000001 0.000001 -0.000001 -0.000001 -0.000008 0.000001 -0.000003 -0.000001 -0.032828 -0.025095 0.012286 -0.000001 0.000002 -0.000003 0.000001 0.000002 -0.000001 0.000000 -0.000003 -0.000001 0.000000 -0.000002 -0.000000 -0.039192 -0.011488 0.008390 0.000000 0.000002 -0.000000 -0.000001 0.000004 -0.000007 0.000003 -0.000001 0.000003 -0.000001 -0.000003 0.000001 -0.043421 0.002443 0.002845 0.000001 0.000003 0.000000 -0.000001 0.000004 -0.000002 -0.000002 -0.000006 0.000000 0.000001 -0.000003 -0.000000 -0.000000 0.000000 0.000000 -1.240372 -0.399959 4.348856 -27.406417 0.081350 2.748215 38.623473 -0.197146 1.991565 -0.000005 -0.000000 0.000000 -0.000000 0.000001 -0.000000 -0.000005 -0.000001 0.000001 -0.038000 -0.085200 0.016200 0.000001 -0.000000 0.000000 0.000000 0.000000 0.000000 -1.224547 -0.398590 5.583138 -16.115307 0.602645 6.475489 27.718137 -0.586155 5.925336 0.000003 0.000001 0.000001 -0.000001 0.000002 0.000000 0.000007 0.000002 0.000000 0.038000 -0.085200 0.016200 -0.000001 -0.000000 -0.000000 
